<svg xmlns="http://www.w3.org/2000/svg" width="512" height="512" viewBox="0 0 108 108">
  <rect width="108" height="108" fill="#0A0A0A"/>
  <path d="M46 26 h16 a5 5 0 0 1 5 5 v46 a5 5 0 0 1 -5 5 h-16 a5 5 0 0 1 -5 -5 v-46 a5 5 0 0 1 5 -5 z"
        fill="none" stroke="#0AC6FF" stroke-width="1.75" stroke-linejoin="round"/>
  <path d="M39.6 43 h-1.8 a1.2 1.2 0 0 0 -1.2 1.2 v6.6 a1.2 1.2 0 0 0 1.2 1.2 h1.8 z" fill="#0AC6FF"/>
  <path d="M52 42 c5.5 0 8 3.5 8 7" fill="none" stroke="#0AC6FF" stroke-width="1.5" stroke-linecap="round"/>
  <path d="M60 46.5 l0 -4.2 l-3.8 1.3" fill="none" stroke="#0AC6FF" stroke-width="1.5" stroke-linecap="round" stroke-linejoin="round"/>
  <path d="M56 66 c-5.5 0 -8 -3.5 -8 -7" fill="none" stroke="#0AC6FF" stroke-width="1.5" stroke-linecap="round"/>
  <path d="M48 61.5 l0 4.2 l3.8 -1.3" fill="none" stroke="#0AC6FF" stroke-width="1.5" stroke-linecap="round" stroke-linejoin="round"/>
</svg>
